HIERARCHY
ROOT Hips
{
	OFFSET 0.000000 83.214638 0.000000
	CHANNELS 6 Xposition Yposition Zposition Xrotation Yrotation Zrotation
	JOINT Pelvis
	{
		OFFSET 0.000000 0.000000 0.000000
		CHANNELS 3 Xrotation Yrotation Zrotation
		JOINT LeftUpLeg
		{
			OFFSET 8.479700 -4.795502 -0.379100
			CHANNELS 3 Xrotation Yrotation Zrotation
			JOINT LeftLeg
			{
				OFFSET 0.024144 -32.555107 0.112900
				CHANNELS 3 Xrotation Yrotation Zrotation
				JOINT LeftFoot
				{
					OFFSET -0.024144 -32.638630 -3.012600
					CHANNELS 3 Xrotation Yrotation Zrotation
					JOINT LeftToeBase
					{
						OFFSET 0.970200 -13.225400 11.864200
						CHANNELS 3 Xrotation Yrotation Zrotation
						End Site
						{
							OFFSET 0.000000 12.319262 0.000000
						}
					}
					JOINT LFootTongue
					{
						OFFSET 1.142400 -1.059800 6.665200
						CHANNELS 3 Xrotation Yrotation Zrotation
						End Site
						{
							OFFSET 0.000000 12.319262 0.000000
						}
					}
				}
				JOINT LeftPantLeg
				{
					OFFSET 0.918482 -16.533964 -2.284700
					CHANNELS 3 Xrotation Yrotation Zrotation
					End Site
					{
						OFFSET 0.350399 24.744368 0.000000
					}
				}
			}
		}
		JOINT RightUpLeg
		{
			OFFSET -8.479700 -4.795502 -0.379100
			CHANNELS 3 Xrotation Yrotation Zrotation
			JOINT RightLeg
			{
				OFFSET -0.023144 -32.555092 0.112900
				CHANNELS 3 Xrotation Yrotation Zrotation
				JOINT RightFoot
				{
					OFFSET 0.023144 -32.638641 -3.012700
					CHANNELS 3 Xrotation Yrotation Zrotation
					JOINT RightToeBase
					{
						OFFSET -0.970200 -13.225400 11.864200
						CHANNELS 3 Xrotation Yrotation Zrotation
						End Site
						{
							OFFSET 0.000000 12.319244 0.000000
						}
					}
					JOINT RFootTongue
					{
						OFFSET -1.142200 -1.059800 6.665200
						CHANNELS 3 Xrotation Yrotation Zrotation
						End Site
						{
							OFFSET 0.000000 12.319243 0.000000
						}
					}
				}
				JOINT RightPantLeg
				{
					OFFSET -0.919482 -16.533978 -2.284800
					CHANNELS 3 Xrotation Yrotation Zrotation
					End Site
					{
						OFFSET -0.350400 24.744419 0.000000
					}
				}
			}
		}
	}
	JOINT Spine
	{
		OFFSET 0.000000 7.722000 1.166200
		CHANNELS 3 Xrotation Yrotation Zrotation
		JOINT Spine1
		{
			OFFSET 0.000000 12.024101 0.248800
			CHANNELS 3 Xrotation Yrotation Zrotation
			JOINT Spine2
			{
				OFFSET 0.000000 11.502998 -0.491200
				CHANNELS 3 Xrotation Yrotation Zrotation
				JOINT Neck
				{
					OFFSET 0.000000 18.430702 -3.123100
					CHANNELS 3 Xrotation Yrotation Zrotation
					JOINT Head
					{
						OFFSET 0.000000 9.051102 1.034000
						CHANNELS 3 Xrotation Yrotation Zrotation
						JOINT HairB
						{
							OFFSET 0.208400 24.786102 24.822300
							CHANNELS 3 Xrotation Yrotation Zrotation
							End Site
							{
								OFFSET 0.000000 32.263779 0.000000
							}
						}
						JOINT HairA
						{
							OFFSET -7.081100 24.428299 23.196600
							CHANNELS 3 Xrotation Yrotation Zrotation
							End Site
							{
								OFFSET 0.000000 32.263779 0.000000
							}
						}
						JOINT Hat
						{
							OFFSET 16.728800 15.048294 -15.439601
							CHANNELS 3 Xrotation Yrotation Zrotation
							End Site
							{
								OFFSET 0.000000 32.263779 0.000000
							}
						}
					}
				}
				JOINT LeftShoulder
				{
					OFFSET 6.197800 13.665199 -4.064700
					CHANNELS 3 Xrotation Yrotation Zrotation
					JOINT LeftArm
					{
						OFFSET 7.778100 -0.187103 -1.709300
						CHANNELS 3 Xrotation Yrotation Zrotation
						JOINT LeftForeArm
						{
							OFFSET 22.049376 0.000000 0.000000
							CHANNELS 3 Xrotation Yrotation Zrotation
							JOINT LeftHand
							{
								OFFSET 23.009392 0.000000 0.000000
								CHANNELS 3 Xrotation Yrotation Zrotation
								JOINT LeftHandThumb1
								{
									OFFSET 3.507191 -2.063065 3.133727
									CHANNELS 3 Xrotation Yrotation Zrotation
									JOINT LeftHandThumb2
									{
										OFFSET 3.101337 -1.790558 1.790558
										CHANNELS 3 Xrotation Yrotation Zrotation
										JOINT LeftHandThumb3
										{
											OFFSET 3.058640 -1.765907 1.765906
											CHANNELS 3 Xrotation Yrotation Zrotation
											End Site
											{
												OFFSET -0.415260 3.926476 -0.049563
											}
										}
									}
								}
								JOINT LeftHandIndex1
								{
									OFFSET 11.334419 -0.901459 3.706815
									CHANNELS 3 Xrotation Yrotation Zrotation
									JOINT LeftHandIndex2
									{
										OFFSET 3.283112 0.000000 0.000000
										CHANNELS 3 Xrotation Yrotation Zrotation
										JOINT LeftHandIndex3
										{
											OFFSET 3.323853 0.000000 0.000000
											CHANNELS 3 Xrotation Yrotation Zrotation
											End Site
											{
												OFFSET -1.135597 3.097809 0.402452
											}
										}
									}
								}
								JOINT LeftHandMiddle1
								{
									OFFSET 11.335861 0.000000 0.000000
									CHANNELS 3 Xrotation Yrotation Zrotation
									JOINT LeftHandMiddle2
									{
										OFFSET 3.410492 0.000000 0.000000
										CHANNELS 3 Xrotation Yrotation Zrotation
										JOINT LeftHandMiddle3
										{
											OFFSET 3.312172 0.000000 0.000000
											CHANNELS 3 Xrotation Yrotation Zrotation
											End Site
											{
												OFFSET -1.150200 3.080154 0.400270
											}
										}
									}
								}
								JOINT LeftHandRing1
								{
									OFFSET 11.514786 -0.013176 -3.003090
									CHANNELS 3 Xrotation Yrotation Zrotation
									JOINT LeftHandRing2
									{
										OFFSET 3.053307 0.000000 0.000000
										CHANNELS 3 Xrotation Yrotation Zrotation
										JOINT LeftHandRing3
										{
											OFFSET 3.295807 0.000000 0.000000
											CHANNELS 3 Xrotation Yrotation Zrotation
											End Site
											{
												OFFSET -1.281006 3.013344 0.375733
											}
										}
									}
								}
								JOINT LeftHandPinky1
								{
									OFFSET 10.518692 -0.960396 -5.730441
									CHANNELS 3 Xrotation Yrotation Zrotation
									JOINT LeftHandPinky2
									{
										OFFSET 2.861649 0.000000 0.000000
										CHANNELS 3 Xrotation Yrotation Zrotation
										JOINT LeftHandPinky3
										{
											OFFSET 2.863380 0.000000 0.000000
											CHANNELS 3 Xrotation Yrotation Zrotation
											End Site
											{
												OFFSET -0.843597 2.711159 0.369971
											}
										}
									}
								}
							}
							JOINT LSleeve
							{
								OFFSET 6.676277 -0.344902 -1.011730
								CHANNELS 3 Xrotation Yrotation Zrotation
								End Site
								{
									OFFSET 0.000000 14.885353 0.000000
								}
							}
						}
					}
				}
				JOINT RightShoulder
				{
					OFFSET -6.197800 13.665199 -4.064700
					CHANNELS 3 Xrotation Yrotation Zrotation
					JOINT RightArm
					{
						OFFSET -7.778100 -0.187103 -1.709300
						CHANNELS 3 Xrotation Yrotation Zrotation
						JOINT RightForeArm
						{
							OFFSET -22.049376 0.000000 0.000000
							CHANNELS 3 Xrotation Yrotation Zrotation
							JOINT RightHand
							{
								OFFSET -23.009392 0.000000 0.000000
								CHANNELS 3 Xrotation Yrotation Zrotation
								JOINT RightHandThumb1
								{
									OFFSET -3.507191 -2.063065 3.133727
									CHANNELS 3 Xrotation Yrotation Zrotation
									JOINT RightHandThumb2
									{
										OFFSET -3.101337 -1.790558 1.790558
										CHANNELS 3 Xrotation Yrotation Zrotation
										JOINT RightHandThumb3
										{
											OFFSET -3.058640 -1.765907 1.765906
											CHANNELS 3 Xrotation Yrotation Zrotation
											End Site
											{
												OFFSET 0.415260 3.926476 -0.049563
											}
										}
									}
								}
								JOINT RightHandIndex1
								{
									OFFSET -11.334419 -0.901459 3.706815
									CHANNELS 3 Xrotation Yrotation Zrotation
									JOINT RightHandIndex2
									{
										OFFSET -3.283112 0.000000 0.000000
										CHANNELS 3 Xrotation Yrotation Zrotation
										JOINT RightHandIndex3
										{
											OFFSET -3.323853 0.000000 0.000000
											CHANNELS 3 Xrotation Yrotation Zrotation
											End Site
											{
												OFFSET 1.135597 3.097809 0.402452
											}
										}
									}
								}
								JOINT RightHandMiddle1
								{
									OFFSET -11.335861 0.000000 0.000000
									CHANNELS 3 Xrotation Yrotation Zrotation
									JOINT RightHandMiddle2
									{
										OFFSET -3.410492 0.000000 0.000000
										CHANNELS 3 Xrotation Yrotation Zrotation
										JOINT RightHandMiddle3
										{
											OFFSET -3.312172 0.000000 0.000000
											CHANNELS 3 Xrotation Yrotation Zrotation
											End Site
											{
												OFFSET 1.150200 3.080154 0.400270
											}
										}
									}
								}
								JOINT RightHandRing1
								{
									OFFSET -11.514786 -0.013176 -3.003090
									CHANNELS 3 Xrotation Yrotation Zrotation
									JOINT RightHandRing2
									{
										OFFSET -3.053307 0.000000 0.000000
										CHANNELS 3 Xrotation Yrotation Zrotation
										JOINT RightHandRing3
										{
											OFFSET -3.295807 0.000000 0.000000
											CHANNELS 3 Xrotation Yrotation Zrotation
											End Site
											{
												OFFSET 1.281006 3.013344 0.375733
											}
										}
									}
								}
								JOINT RightHandPinky1
								{
									OFFSET -10.518692 -0.960396 -5.730441
									CHANNELS 3 Xrotation Yrotation Zrotation
									JOINT RightHandPinky2
									{
										OFFSET -2.861649 0.000000 0.000000
										CHANNELS 3 Xrotation Yrotation Zrotation
										JOINT RightHandPinky3
										{
											OFFSET -2.863380 0.000000 0.000000
											CHANNELS 3 Xrotation Yrotation Zrotation
											End Site
											{
												OFFSET 0.843597 2.711159 0.369971
											}
										}
									}
								}
							}
							JOINT RSleeve
							{
								OFFSET -6.676277 -0.344902 -1.011730
								CHANNELS 3 Xrotation Yrotation Zrotation
								End Site
								{
									OFFSET 0.000000 14.885353 0.000000
								}
							}
						}
					}
				}
				JOINT Backpack
				{
					OFFSET 0.000000 -2.471497 36.677502
					CHANNELS 3 Xrotation Yrotation Zrotation
					End Site
					{
						OFFSET 0.000000 20.427315 0.000000
					}
				}
				JOINT Hood
				{
					OFFSET 0.000000 18.754097 -10.431000
					CHANNELS 3 Xrotation Yrotation Zrotation
					JOINT Hood1
					{
						OFFSET 0.000000 -5.011002 -7.685901
						CHANNELS 3 Xrotation Yrotation Zrotation
						End Site
						{
							OFFSET 0.000000 9.175140 0.000000
						}
					}
				}
				JOINT LHoodieString
				{
					OFFSET 5.250500 16.397697 3.089900
					CHANNELS 3 Xrotation Yrotation Zrotation
					JOINT LHoodieString1
					{
						OFFSET 0.257700 -6.364304 3.694600
						CHANNELS 3 Xrotation Yrotation Zrotation
						JOINT LHoodieString2
						{
							OFFSET 0.000000 -9.643799 2.679100
							CHANNELS 3 Xrotation Yrotation Zrotation
							End Site
							{
								OFFSET 0.000000 10.009018 0.000000
							}
						}
					}
				}
				JOINT RHoodieString
				{
					OFFSET -5.250500 16.397697 3.089900
					CHANNELS 3 Xrotation Yrotation Zrotation
					JOINT RHoodieString1
					{
						OFFSET -0.257700 -6.364304 3.694600
						CHANNELS 3 Xrotation Yrotation Zrotation
						JOINT RHoodieString2
						{
							OFFSET 0.000000 -9.643799 2.679100
							CHANNELS 3 Xrotation Yrotation Zrotation
							End Site
							{
								OFFSET 0.000000 10.009018 0.000000
							}
						}
					}
				}
			}
			JOINT LBackpack_Strap
			{
				OFFSET 15.223200 -7.719803 -6.610900
				CHANNELS 3 Xrotation Yrotation Zrotation
				End Site
				{
					OFFSET 0.000000 16.040596 0.000000
				}
			}
			JOINT RBackpack_Strap
			{
				OFFSET -15.223000 -7.719803 -6.610900
				CHANNELS 3 Xrotation Yrotation Zrotation
				End Site
				{
					OFFSET 0.000000 16.040596 0.000000
				}
			}
		}
	}
	JOINT BoyFacialAnim_Joint
	{
		OFFSET 1.000000 -82.208099 -1.550900
		CHANNELS 3 Xrotation Yrotation Zrotation
		End Site
		{
			OFFSET 0.000000 30.012791 0.000000
		}
	}
}
MOTION
Frames: 4
Frame Time: 0.016667
26.528481 76.700684 175.350708 148.555262 29.106438 199.248229 0.000001 0.000000 0.000000 -67.725041 27.807061 21.917577 25.803019 -1.251841 5.128039 11.164131 -0.316751 -9.330673 0.000000 -0.000000 -0.000000 0.000000 -0.000000 -0.000000 -0.000000 -0.000000 -0.000000 -65.871376 -20.360456 -14.765983 47.099789 9.274665 -9.818244 -13.370787 6.960980 5.051977 0.000000 -0.000001 -0.000000 0.000000 -0.000001 -0.000000 0.000000 -0.000002 0.000001 15.627345 0.540689 -3.309446 11.179199 1.496553 -1.690589 11.176922 1.458480 -1.755962 -5.323173 6.287502 -1.210494 -58.746723 28.769706 8.224004 0.000000 0.000000 -0.000000 0.000000 0.000000 -0.000000 0.000000 0.000000 -0.000000 0.679289 -4.570062 -5.408210 -7.347362 -16.947832 -52.221243 -0.000009 -39.502068 -0.000025 -25.552462 -15.892566 19.611211 -1.765980 13.580032 7.641523 4.742578 17.876569 1.476435 0.000001 -0.000002 -0.000003 0.103572 1.192122 -9.929396 0.103562 1.192125 -9.929409 -0.000002 -0.000001 -0.000000 0.103241 1.190225 -9.913395 0.103893 1.194027 -9.945389 0.000004 0.000001 0.000000 0.103573 1.192116 -9.929397 0.103553 1.192124 -9.929418 0.000000 -0.000004 0.000005 0.787126 5.188581 -9.457034 0.096223 -2.863094 -10.432516 -0.000002 0.000001 0.000002 -0.000000 0.000001 -0.000000 1.594498 3.261025 6.782100 -3.991014 33.404970 42.645287 0.000017 33.641721 -0.000013 -1.508942 5.491320 -1.096622 -2.082034 -13.461638 -8.150985 5.520678 -18.558737 -0.893695 -0.000006 0.000002 0.000000 0.104537 -1.203684 9.928048 0.104557 -1.203679 9.928030 -0.000001 -0.000000 0.000002 0.104538 -1.203687 9.928044 0.104554 -1.203681 9.928033 -0.000000 -0.000001 0.000001 0.104536 -1.203678 9.928051 0.104556 -1.203680 9.928016 0.000001 0.000001 -0.000001 0.104540 -1.203682 9.928033 0.104551 -1.203672 9.928036 0.000002 0.000001 0.000000 -0.000000 0.000000 -0.000000 -0.000001 0.000001 0.000000 -0.000001 0.000001 0.000000 -0.000001 0.000001 0.000000 -0.000001 0.000001 0.000000 -0.000001 0.000001 0.000000 -0.000001 0.000000 0.000001 -0.000001 0.000001 0.000000 -0.000001 0.000001 0.000000 -0.000001 0.000000 0.000001 -0.000001 0.000001 0.000002 -0.000001 0.000001 0.000002 0.000001 0.000000 0.000000 
26.701256 76.729370 175.507782 149.667149 29.323071 199.140654 0.000001 0.000002 -0.000000 -66.576880 29.239493 22.142461 24.962808 -2.268733 4.848781 11.118363 -0.279616 -9.064435 -0.000000 -0.000000 -0.000000 -0.000000 -0.000000 -0.000000 -0.000001 -0.000000 0.000000 -64.939533 -19.564633 -14.658850 47.538663 9.280480 -9.813339 -13.677791 6.380758 4.901316 -0.000000 -0.000003 -0.000000 -0.000000 -0.000003 -0.000000 0.000000 -0.000003 0.000000 15.677065 0.482682 -3.197820 11.244313 1.411617 -1.634692 11.244383 1.359447 -1.691658 -4.891608 6.207626 -1.571769 -58.051588 28.398368 7.817770 -0.000000 0.000000 0.000001 -0.000000 0.000000 0.000001 -0.000000 0.000000 0.000001 0.699062 -4.359879 -5.527545 -8.886014 -19.670632 -51.048103 0.000027 -37.582467 0.000020 -24.098933 -16.275246 18.961751 -1.765986 13.580031 7.641525 4.742575 17.876572 1.476424 -0.000001 0.000002 0.000001 0.103567 1.192122 -9.929394 0.103563 1.192128 -9.929403 0.000000 0.000001 -0.000002 0.103231 1.190227 -9.913389 0.103896 1.194027 -9.945394 0.000003 0.000000 0.000000 0.103565 1.192116 -9.929397 0.103558 1.192131 -9.929423 0.000003 -0.000001 0.000003 0.787119 5.188581 -9.457034 0.096217 -2.863095 -10.432513 0.000004 -0.000000 -0.000000 -0.000001 0.000001 0.000000 1.600060 3.351345 6.666512 -3.315559 33.242527 44.633456 -0.000007 30.632668 0.000016 -3.900149 2.699663 0.206859 -2.082034 -13.461644 -8.150986 5.520678 -18.558737 -0.893694 -0.000001 0.000001 0.000002 0.104540 -1.203686 9.928049 0.104551 -1.203681 9.928029 -0.000000 -0.000000 0.000000 0.104539 -1.203688 9.928045 0.104554 -1.203681 9.928033 0.000004 0.000000 -0.000000 0.104539 -1.203678 9.928054 0.104554 -1.203681 9.928018 -0.000001 0.000001 -0.000001 0.104538 -1.203684 9.928034 0.104550 -1.203672 9.928037 0.000004 -0.000001 -0.000002 -0.000001 0.000000 -0.000000 0.000000 0.000001 0.000001 0.000000 0.000001 0.000001 0.000000 0.000001 0.000001 0.000000 0.000001 0.000001 0.000000 0.000001 -0.000001 0.000002 0.000000 -0.000001 0.000000 0.000001 0.000001 0.000000 0.000001 -0.000001 0.000002 0.000000 -0.000001 -0.000002 0.000000 -0.000001 -0.000002 0.000000 -0.000001 0.000001 0.000002 -0.000000 
26.909569 76.723434 175.575668 151.172741 29.473847 198.760540 -0.000003 0.000000 0.000000 -65.661525 30.870184 22.479068 24.773993 -3.855675 4.943641 11.266030 -0.271072 -9.003041 0.000000 -0.000000 -0.000000 0.000000 -0.000000 -0.000000 0.000000 -0.000000 0.000000 -63.746948 -18.892633 -14.736382 48.235025 9.306193 -9.817278 -14.242791 5.784460 4.760783 -0.000000 -0.000003 -0.000000 -0.000000 -0.000003 -0.000000 -0.000000 -0.000001 0.000000 15.709853 0.435182 -3.002290 11.298303 1.289823 -1.543753 11.300031 1.227188 -1.591301 -4.701391 6.175777 -2.096395 -56.789618 27.923743 7.735829 -0.000000 -0.000000 0.000000 -0.000000 -0.000000 0.000000 -0.000000 -0.000000 0.000000 0.713084 -3.812082 -5.705424 -10.233120 -22.867617 -49.821398 0.000002 -35.663112 0.000004 -23.015386 -16.767901 16.827088 -1.765987 13.580031 7.641523 4.742574 17.876570 1.476429 -0.000001 0.000002 -0.000001 0.103565 1.192121 -9.929399 0.103563 1.192127 -9.929405 0.000003 0.000003 -0.000002 0.103233 1.190224 -9.913392 0.103902 1.194024 -9.945392 0.000001 -0.000000 -0.000002 0.103563 1.192117 -9.929393 0.103552 1.192125 -9.929413 0.000000 -0.000001 0.000001 0.787126 5.188580 -9.457033 0.096222 -2.863093 -10.432515 -0.000000 0.000001 -0.000000 0.000000 0.000000 -0.000000 1.592959 3.421395 6.456775 -2.599026 33.653264 46.550447 0.000000 26.450860 -0.000011 -8.655982 3.202493 0.851980 -2.082034 -13.461639 -8.150986 5.520681 -18.558739 -0.893693 0.000000 -0.000002 0.000003 0.104535 -1.203683 9.928049 0.104557 -1.203680 9.928029 -0.000000 -0.000001 0.000002 0.104538 -1.203688 9.928045 0.104554 -1.203680 9.928033 -0.000001 0.000001 0.000002 0.104538 -1.203677 9.928050 0.104555 -1.203680 9.928019 0.000000 0.000001 -0.000001 0.104538 -1.203681 9.928033 0.104549 -1.203671 9.928039 0.000002 0.000000 0.000000 -0.000000 0.000000 -0.000000 -0.000002 -0.000000 -0.000001 -0.000002 -0.000000 -0.000001 -0.000002 -0.000000 -0.000001 -0.000002 -0.000000 -0.000001 -0.000002 -0.000000 -0.000003 -0.000002 -0.000000 -0.000003 -0.000002 -0.000000 -0.000001 -0.000002 -0.000000 -0.000003 -0.000002 -0.000000 -0.000003 0.000001 -0.000001 0.000002 0.000001 -0.000001 0.000002 -0.000003 0.000000 0.000000 
27.150787 76.700523 175.598465 152.876053 29.473745 198.074994 -0.000000 0.000001 -0.000000 -64.752031 32.232523 22.698440 24.940362 -5.501361 5.406861 11.208756 -0.270049 -9.284731 0.000000 0.000000 -0.000000 0.000000 0.000000 -0.000000 -0.000000 0.000000 -0.000001 -62.363261 -18.473297 -14.855779 49.001734 9.363222 -9.822577 -14.946701 5.126437 4.602868 -0.000000 0.000002 0.000000 -0.000000 0.000002 0.000000 0.000002 -0.000000 -0.000000 15.654247 0.379746 -2.694038 11.281990 1.136259 -1.387474 11.284222 1.073097 -1.426244 -4.810488 6.231626 -2.702027 -54.792471 27.480831 8.120778 -0.000000 0.000000 -0.000000 -0.000000 0.000000 -0.000000 -0.000000 0.000000 -0.000000 0.705015 -3.075859 -5.855097 -11.428533 -25.964732 -48.874867 0.000016 -34.245588 0.000011 -22.775609 -16.766880 13.784991 -1.765989 13.580034 7.641519 4.742575 17.876576 1.476435 -0.000001 0.000001 0.000003 0.103566 1.192126 -9.929399 0.103560 1.192125 -9.929405 -0.000003 -0.000001 -0.000000 0.103236 1.190229 -9.913398 0.103897 1.194026 -9.945391 0.000004 -0.000000 0.000002 0.103563 1.192119 -9.929396 0.103555 1.192126 -9.929417 0.000000 0.000000 0.000002 0.787121 5.188583 -9.457034 0.096223 -2.863094 -10.432511 -0.000001 -0.000001 -0.000000 0.000002 0.000001 0.000001 1.583463 3.469110 6.266595 -1.950603 34.322056 48.394421 0.000008 21.196247 -0.000018 -11.889279 6.876521 2.098381 -2.082034 -13.461639 -8.150986 5.520681 -18.558734 -0.893694 -0.000000 -0.000004 -0.000003 0.104536 -1.203683 9.928048 0.104556 -1.203679 9.928033 0.000000 -0.000001 -0.000000 0.104538 -1.203685 9.928043 0.104554 -1.203682 9.928032 0.000001 -0.000000 0.000001 0.104536 -1.203677 9.928052 0.104553 -1.203680 9.928019 0.000002 0.000001 -0.000003 0.104539 -1.203681 9.928034 0.104551 -1.203670 9.928034 0.000001 0.000003 -0.000003 -0.000001 0.000000 -0.000000 -0.000000 0.000001 -0.000002 -0.000000 0.000001 -0.000002 -0.000000 0.000001 -0.000002 -0.000000 0.000001 -0.000002 -0.000000 0.000001 -0.000001 -0.000000 0.000000 -0.000001 -0.000000 0.000001 -0.000002 -0.000000 0.000001 -0.000001 -0.000000 0.000000 -0.000001 -0.000000 0.000002 -0.000003 -0.000000 0.000002 -0.000003 -0.000000 0.000001 -0.000000 
